<?xml version="1.0" encoding="UTF-8" standalone="no"?>
<!-- Created with Inkscape (http://www.inkscape.org/) -->

<svg
   version="1.1"
   id="svg824"
   width="320"
   height="339.20001"
   viewBox="0 0 320 339.20001"
   sodipodi:docname="mandarina.svg"
   inkscape:version="1.1 (c4e8f9ed74, 2021-05-24)"
   xmlns:inkscape="http://www.inkscape.org/namespaces/inkscape"
   xmlns:sodipodi="http://sodipodi.sourceforge.net/DTD/sodipodi-0.dtd"
   xmlns="http://www.w3.org/2000/svg"
   xmlns:svg="http://www.w3.org/2000/svg">
  <defs
     id="defs828" />
  <sodipodi:namedview
     id="namedview826"
     pagecolor="#ffffff"
     bordercolor="#666666"
     borderopacity="1.0"
     inkscape:pageshadow="2"
     inkscape:pageopacity="0.0"
     inkscape:pagecheckerboard="0"
     showgrid="false"
     inkscape:zoom="0.81515328"
     inkscape:cx="318.34504"
     inkscape:cy="145.37143"
     inkscape:window-width="1360"
     inkscape:window-height="768"
     inkscape:window-x="0"
     inkscape:window-y="0"
     inkscape:window-maximized="1"
     inkscape:current-layer="layer2" />
  <g
     inkscape:groupmode="layer"
     id="layer2"
     inkscape:label="Image 2" />
  <g
     inkscape:groupmode="layer"
     id="layer1"
     inkscape:label="Image 1">
    <path
       style="fill:#ff7043;fill-opacity:1;stroke:#ff7043;stroke-width:11.3386;stroke-linecap:round;stroke-linejoin:round;stroke-miterlimit:4;stroke-dasharray:none;stroke-opacity:1"
       id="path936-6"
       sodipodi:type="arc"
       sodipodi:cx="154.29416"
       sodipodi:cy="151.83179"
       sodipodi:rx="147.75272"
       sodipodi:ry="145.04861"
       sodipodi:start="0"
       sodipodi:end="6.2737605"
       sodipodi:open="true"
       sodipodi:arc-type="arc"
       d="M 302.04687,151.83179 A 147.75272,145.04861 0 0 1 154.64229,296.88 147.75272,145.04861 0 0 1 6.5430834,152.51531 147.75272,145.04861 0 0 1 153.24976,6.7867963 147.75272,145.04861 0 0 1 302.04031,150.46475" />
  </g>
  <g
     inkscape:groupmode="layer"
     inkscape:label="Image"
     id="g830">
    <path
       style="fill:#ff7043;fill-opacity:1;stroke:#f9fcfc;stroke-width:22.6772;stroke-linecap:round;stroke-linejoin:round;stroke-miterlimit:4;stroke-dasharray:none;stroke-opacity:1"
       id="path936"
       sodipodi:type="arc"
       sodipodi:cx="154.46188"
       sodipodi:cy="151.64211"
       sodipodi:rx="127.24927"
       sodipodi:ry="124.9204"
       sodipodi:start="0"
       sodipodi:end="6.2737605"
       sodipodi:open="true"
       sodipodi:arc-type="arc"
       d="M 281.71115,151.64211 A 127.24927,124.9204 0 0 1 154.76171,276.56216 127.24927,124.9204 0 0 1 27.214029,152.23078 127.24927,124.9204 0 0 1 153.56242,26.724823 127.24927,124.9204 0 0 1 281.7055,150.46477" />
  </g>
  <g
     inkscape:groupmode="layer"
     id="layer3"
     inkscape:label="Image 3">
    <path
       style="fill:#fdd835;fill-opacity:0.954319;stroke:#ff7043;stroke-width:11.3386;stroke-linecap:round;stroke-linejoin:round;stroke-miterlimit:4;stroke-dasharray:none;stroke-opacity:1"
       id="path10230"
       sodipodi:type="arc"
       sodipodi:cx="83.064316"
       sodipodi:cy="108.64818"
       sodipodi:rx="10.034799"
       sodipodi:ry="10.545806"
       sodipodi:start="0"
       sodipodi:end="6.2737605"
       sodipodi:open="true"
       sodipodi:arc-type="arc"
       d="M 93.099114,108.64818 A 10.034799,10.545806 0 0 1 83.08796,119.19395 10.034799,10.545806 0 0 1 73.029629,108.69787 10.034799,10.545806 0 0 1 82.993384,98.102636 10.034799,10.545806 0 0 1 93.098669,108.54879" />
    <path
       style="fill:#fdd835;fill-opacity:0.954319;stroke:#ff7043;stroke-width:11.3386;stroke-linecap:round;stroke-linejoin:round;stroke-miterlimit:4;stroke-dasharray:none;stroke-opacity:1"
       id="path10232"
       sodipodi:type="arc"
       sodipodi:cx="71.194557"
       sodipodi:cy="142.8385"
       sodipodi:rx="12.670202"
       sodipodi:ry="13.125013"
       sodipodi:start="0"
       sodipodi:end="6.2737605"
       sodipodi:open="true"
       sodipodi:arc-type="arc"
       d="m 83.864759,142.8385 a 12.670202,13.125013 0 0 1 -12.640348,13.12498 12.670202,13.125013 0 0 1 -12.699915,-13.06313 12.670202,13.125013 0 0 1 12.580501,-13.18653 12.670202,13.125013 0 0 1 12.7592,13.00098" />
    <path
       style="fill:#fdd835;fill-opacity:0.954319;stroke:#ff7043;stroke-width:11.3386;stroke-linecap:round;stroke-linejoin:round;stroke-miterlimit:4;stroke-dasharray:none;stroke-opacity:1"
       id="path10336"
       sodipodi:type="arc"
       sodipodi:cx="100.35251"
       sodipodi:cy="116.598"
       sodipodi:rx="7.2538552"
       sodipodi:ry="8.0492086"
       sodipodi:start="0"
       sodipodi:end="6.2737605"
       sodipodi:open="true"
       sodipodi:arc-type="arc"
       d="m 107.60636,116.598 a 7.2538552,8.0492086 0 0 1 -7.23676,8.04919 7.2538552,8.0492086 0 0 1 -7.270866,-8.01126 7.2538552,8.0492086 0 0 1 7.202496,-8.08694 7.2538552,8.0492086 0 0 1 7.30481,7.97315" />
    <path
       style="fill:#fdd835;fill-opacity:0.954319;stroke:#ff7043;stroke-width:11.3386;stroke-linecap:round;stroke-linejoin:round;stroke-miterlimit:4;stroke-dasharray:none;stroke-opacity:1"
       id="path10418"
       sodipodi:type="arc"
       sodipodi:cx="82.107285"
       sodipodi:cy="167.73557"
       sodipodi:rx="7.2538552"
       sodipodi:ry="8.0492086"
       sodipodi:start="0"
       sodipodi:end="6.2737605"
       sodipodi:open="true"
       sodipodi:arc-type="arc"
       d="m 89.36114,167.73557 a 7.2538552,8.0492086 0 0 1 -7.236764,8.04918 7.2538552,8.0492086 0 0 1 -7.270866,-8.01125 7.2538552,8.0492086 0 0 1 7.2025,-8.08694 7.2538552,8.0492086 0 0 1 7.304808,7.97314" />
    <path
       style="fill:#fdd835;fill-opacity:0.954319;stroke:#ff7043;stroke-width:11.3386;stroke-linecap:round;stroke-linejoin:round;stroke-miterlimit:4;stroke-dasharray:none;stroke-opacity:1"
       id="path10420"
       sodipodi:type="arc"
       sodipodi:cx="104.01298"
       sodipodi:cy="150.47562"
       sodipodi:rx="7.2538552"
       sodipodi:ry="8.0492086"
       sodipodi:start="0"
       sodipodi:end="6.2737605"
       sodipodi:open="true"
       sodipodi:arc-type="arc"
       d="m 111.26683,150.47562 a 7.2538552,8.0492086 0 0 1 -7.23676,8.04918 7.2538552,8.0492086 0 0 1 -7.270867,-8.01125 7.2538552,8.0492086 0 0 1 7.202497,-8.08694 7.2538552,8.0492086 0 0 1 7.30481,7.97315" />
  </g>
  <g
     inkscape:groupmode="layer"
     id="layer4"
     inkscape:label="Image 4"
     style="display:inline">
    <path
       style="fill:#4caf50;fill-opacity:1;stroke:none;stroke-width:11.3386;stroke-linecap:round;stroke-linejoin:round;stroke-miterlimit:4;stroke-dasharray:none;stroke-opacity:1"
       id="path10445"
       sodipodi:type="arc"
       sodipodi:cx="117.76145"
       sodipodi:cy="-148.14171"
       sodipodi:rx="12.112152"
       sodipodi:ry="42.187805"
       sodipodi:start="0"
       sodipodi:end="6.2737605"
       sodipodi:open="true"
       sodipodi:arc-type="arc"
       d="m 129.8736,-148.14171 a 12.112152,42.187805 0 0 1 -12.08361,42.18769 12.112152,42.187805 0 0 1 -12.14056,-41.98888 12.112152,42.187805 0 0 1 12.02641,-42.38556 12.112152,42.187805 0 0 1 12.19723,41.78915"
       transform="matrix(0.35662441,0.93424784,-0.89565375,0.44475202,0,0)" />
    <path
       style="fill:#4caf50;fill-opacity:1;stroke:none;stroke-width:11.3386;stroke-linecap:round;stroke-linejoin:round;stroke-miterlimit:4;stroke-dasharray:none;stroke-opacity:1"
       id="path12014"
       sodipodi:type="arc"
       sodipodi:cx="54.104511"
       sodipodi:cy="109.42325"
       sodipodi:rx="11.867661"
       sodipodi:ry="42.858204"
       sodipodi:start="0"
       sodipodi:end="6.2737605"
       sodipodi:open="true"
       sodipodi:arc-type="arc"
       d="M 65.972173,109.42325 A 11.867661,42.858204 0 0 1 54.132474,152.28133 11.867661,42.858204 0 0 1 42.236982,109.62521 11.867661,42.858204 0 0 1 54.020624,66.566115 11.867661,42.858204 0 0 1 65.971646,109.01932"
       transform="matrix(0.68375162,-0.72971482,0.72626862,0.68741101,0,0)" />
  </g>
</svg>
